<svg viewBox="0 0 100 100" fill="currentColor" xmlns="http://www.w3.org/2000/svg">
  <!-- Top M shape -->
  <path d="M20 25 Q25 20 30 25 L35 40 L40 30 Q42.5 25 45 25 Q47.5 25 50 30 L55 40 L60 25 Q65 20 70 25 L70 45 L20 45 Z" />
  
  <!-- Stars cluster -->
  <circle cx="75" cy="30" r="2"/>
  <circle cx="80" cy="25" r="1.5"/>
  <circle cx="82" cy="32" r="1"/>
  <circle cx="78" cy="35" r="1.5"/>
  
  <!-- Bottom A/D shape -->
  <path d="M20 55 Q20 50 25 50 L65 50 Q70 50 70 55 L70 75 Q70 80 65 80 L25 80 Q20 80 20 75 Z" />
  <rect x="30" y="62" width="30" height="6" fill="black"/>
</svg>